PathFileType	4	(X/Y/Z)	../motion_lab\static\Static03\task.trc
DataRate	CameraRate	NumFrames	NumMarkers	Units	OrigDataRate	OrigDataStartFrame	OrigNumFrames
200.000000	200.000000	4	40	mm	200.000000	111	445
Frame#	Time	C7			RBAK			CLAV			STRN			T10			RASI			RPSI			LPSI			LASI			PE01			PE02			PE03			RTH1			RTH2			RTH3			RKNE			RMKNE			RTB1			RTB2			RTB3			RANK			RMMA			RHEE			RD5M			RTOE			LTH1			LTH2			LTH3			LKNE			LMKNE			LTB1			LTB2			LTB3			LANK			LMMA			LHEE			LTOE			LD5M			LGT			RGT			
		X1	Y1	Z1	X2	Y2	Z2	X3	Y3	Z3	X4	Y4	Z4	X5	Y5	Z5	X6	Y6	Z6	X7	Y7	Z7	X8	Y8	Z8	X9	Y9	Z9	X10	Y10	Z10	X11	Y11	Z11	X12	Y12	Z12	X13	Y13	Z13	X14	Y14	Z14	X15	Y15	Z15	X16	Y16	Z16	X17	Y17	Z17	X18	Y18	Z18	X19	Y19	Z19	X20	Y20	Z20	X21	Y21	Z21	X22	Y22	Z22	X23	Y23	Z23	X24	Y24	Z24	X25	Y25	Z25	X26	Y26	Z26	X27	Y27	Z27	X28	Y28	Z28	X29	Y29	Z29	X30	Y30	Z30	X31	Y31	Z31	X32	Y32	Z32	X33	Y33	Z33	X34	Y34	Z34	X35	Y35	Z35	X36	Y36	Z36	X37	Y37	Z37	X38	Y38	Z38	X39	Y39	Z39	X40	Y40	Z40	

112	0.555	-9.631092071533207	1354.22265625	291.2955017089845	72.92569732666018	1257.119018554688	333.6898193359376	-5.956400394439699	1290.5322265625	153.1287994384766	-0.7067022919654848	1110.388427734375	64.46218872070315	4.297029972076418	1054.918823242188	279.440399169922	117.9626541137696	885.8818359375005	104.2849121093751	56.52361679077151	921.5873413085942	301.4314270019532	-28.85545349121095	918.2130737304692	298.7741699218751	-104.9479370117188	885.114135742188	95.92169952392581	11.20620059967041	953.8923339843755	288.687713623047	35.82448196411134	899.2448730468755	314.0230102539064	-15.08215332031251	896.9378051757817	310.5779113769532	165.0740966796876	598.3739013671877	211.0122680664064	154.1208953857422	519.6567382812502	203.5293579101564	158.899642944336	570.8656005859377	169.3117218017579	144.0549468994141	452.8987121582034	208.9718780517579	32.60030746459962	446.6258850097659	193.5438842773439	161.522201538086	299.1707153320314	226.6022949218751	167.2478637695313	263.0810852050782	276.3085937500001	163.2823638916016	222.5377044677736	246.2519073486329	152.8651123046876	59.36021423339847	300.1751403808595	79.20688629150393	76.864860534668	267.3273315429689	103.1801528930665	27.94800567626955	333.8726806640626	200.297821044922	14.01140975952149	199.6618041992189	155.2075958251954	30.43243980407716	151.4503479003907	-168.0700683593751	622.6045532226565	187.122543334961	-158.6316528320313	570.6712036132815	217.4951629638673	-164.6349182128907	597.670104980469	143.5326538085938	-148.5727233886719	445.0928955078127	190.3832397460938	-46.45766067504884	437.4694519042971	178.6096191406251	-184.0025482177735	299.494110107422	267.4363403320314	-184.0696105957032	220.1754608154298	274.763885498047	-183.3990631103516	246.8572692871095	233.2765960693361	-185.8326873779297	70.49478149414065	252.4390563964845	-106.0331726074219	74.86730957031253	239.1115112304689	-148.8762969970704	35.92086791992189	303.9925537109376	-176.9549560546876	29.62667846679689	111.4360809326172	-223.8466186523439	18.35923004150391	162.5588989257813	-193.7673797607423	788.9040527343755	177.5283355712891	202.4247283935548	796.1439819335942	182.4087829589844	
113	0.5600000000000001	-9.617913246154789	1354.2001953125	291.3019409179689	72.93589782714847	1257.157592773438	333.7090759277345	-5.944508075714113	1290.52197265625	153.1367340087891	-0.6699426770210268	1110.375732421875	64.48425292968753	4.293125629425051	1054.9189453125	279.4328002929689	117.9776153564454	885.8892211914067	104.2514572143555	56.51311874389651	921.603149414063	301.4122619628907	-28.84857749938966	918.1911621093755	298.7664184570314	-104.9531402587891	885.1247558593755	95.91993713378909	11.20782089233399	953.8995971679692	288.7029418945314	35.85827255249025	899.0171508789067	314.0253906250001	-15.06378269195557	896.958862304688	310.5429992675782	165.0670318603516	598.374450683594	210.9981231689454	154.1173400878907	519.6641845703127	203.4999847412111	158.8999786376954	570.8720703125002	169.2868041992188	144.048812866211	452.8947448730471	208.9691162109376	32.5919761657715	446.6230773925784	193.5265960693361	161.5055847167969	299.0223388671876	226.6617736816407	167.2476196289063	263.0770568847657	276.2728881835939	163.2709045410157	222.6246337890626	246.3348999023439	152.864486694336	59.34489059448245	300.1930541992189	79.21253204345706	76.88713073730472	267.3241577148439	103.1821289062501	27.90688133239748	333.8642578125001	200.3064117431642	14.01505279541016	199.6294250488282	155.2029113769532	30.44972610473634	151.4470672607422	-167.6059570312501	622.6303710937502	187.198715209961	-158.6314697265626	570.6917724609377	217.4919891357423	-164.6211547851563	597.6884765625002	143.5118408203126	-148.610580444336	445.0781555175784	190.3632354736329	-46.40993499755861	437.506774902344	178.5598297119141	-183.962142944336	299.4542236328126	267.4110717773439	-184.0775299072266	220.1689300537111	274.7557983398439	-183.3850097656251	246.8472747802736	233.2627105712892	-185.8223876953126	70.49560546875003	252.4353790283204	-106.0098190307618	75.05091094970706	238.8805236816407	-148.8754882812501	35.92565536499025	303.9984130859376	-176.937484741211	29.62327194213869	111.4392242431641	-223.6513824462892	18.07207679748536	162.2132568359376	-193.7678527832032	788.9220581054692	177.5084686279297	202.3630981445314	796.2302856445317	182.629379272461	
114	0.5650000000000001	-9.626566886901859	1354.186645507813	291.3113708496095	72.93400573730472	1257.101440429688	333.7171325683595	-5.929699420928957	1290.511474609375	153.1352233886719	-0.6581202745437624	1110.333862304688	64.50244140625003	4.281670570373537	1054.9140625	279.447479248047	117.9713363647462	885.8933105468755	104.2495346069337	56.50945281982425	921.5964355468755	301.4120178222657	-28.84436035156251	918.175903320313	298.747772216797	-104.9634857177735	885.1232299804692	95.90728759765628	11.16706466674805	953.8740844726567	288.7131652832032	35.78116607666017	898.996459960938	314.0812072753907	-15.08130359649659	896.9221801757817	310.5397338867189	165.0792694091797	598.3977661132815	210.9562377929689	154.1120758056641	519.6638793945315	203.4758911132814	158.8937225341797	570.8579711914065	169.2861785888672	144.0394592285157	452.8896484375002	208.9544067382814	32.59529113769533	446.6181945800784	193.514129638672	161.4752655029297	299.166961669922	226.5988922119142	167.2036285400391	262.9642333984376	276.3442382812501	163.2723693847657	222.4018707275392	246.3005218505861	152.8734893798829	59.3055114746094	300.1920776367189	79.20845794677737	76.87207031250003	267.3204650878907	103.4835739135743	27.53386688232423	333.7706909179689	200.3091278076173	14.0166244506836	199.6403808593751	155.2069244384766	30.43258094787599	151.4465026855469	-167.6528625488282	622.603698730469	187.1972198486329	-158.6487274169922	570.6899414062502	217.4695129394532	-164.6247253417969	597.677917480469	143.4995269775391	-148.5846710205079	445.1021423339846	190.3652496337891	-46.3942222595215	437.5791625976565	178.5073394775391	-183.4628143310547	299.129608154297	267.3436279296876	-184.0791778564454	220.1785278320314	274.7547607421876	-183.4040069580079	246.8472747802736	233.2642059326173	-185.8267059326172	70.48818969726565	252.4335327148439	-106.0336914062501	74.86820220947268	239.0995483398439	-148.8743743896485	35.92940139770509	303.9846191406251	-176.9436798095704	29.62019157409669	111.4409179687501	-223.6514434814454	18.08184623718262	162.2111206054688	-193.7732696533204	788.9235839843755	177.5007781982422	202.3598632812501	796.2117309570317	182.6236114501954	
115	0.5700000000000001	-9.608693122863773	1354.192993164063	291.3158569335939	72.95332336425784	1257.119384765625	333.7137451171876	-5.904225349426271	1290.503784179688	153.1421966552735	-0.6560354232788088	1110.3134765625	64.52545928955081	4.284609317779543	1054.9091796875	279.439910888672	117.9536972045899	885.876342773438	104.2678604125977	56.50103759765628	921.5875854492192	301.3964233398439	-28.85973548889162	918.171752929688	298.7501831054689	-104.951759338379	885.1365356445317	95.89969635009768	11.23368740081787	953.935424804688	288.6828613281251	35.80563735961915	899.0849609375005	314.0554504394532	-15.09631633758546	896.9160766601567	310.5618896484376	165.0656890869141	598.3792724609377	210.9681091308595	154.1049194335938	519.6434326171877	203.4833221435548	158.8856811523438	570.8405761718752	169.2747344970704	144.0445404052735	452.8901062011721	208.9343109130861	32.60205841064455	446.621032714844	193.4994506835939	161.4794311523438	299.2460327148439	226.5729522705079	167.2346649169922	263.0505981445314	276.287811279297	163.1867980957032	222.7207031250001	246.3078613281251	152.8625183105469	59.34220886230472	300.1805725097657	79.19264984130862	76.8522644042969	267.3268127441407	103.243392944336	27.84104919433595	333.8424072265626	200.3029174804689	14.01892375946046	199.6429901123048	155.2017517089844	30.43263626098634	151.4512786865235	-168.0712890625001	622.575866699219	187.0708007812501	-158.6555786132813	570.6556396484377	217.4541931152345	-164.6397552490235	597.6704711914065	143.4944763183594	-148.6086883544922	445.0819091796877	190.3470916748047	-46.37976455688478	437.5849914550784	178.4963531494141	-184.0141601562501	299.4524536132814	267.4254760742189	-184.0821990966797	220.1889038085939	274.7519836425782	-183.4050903320313	246.8462982177736	233.2595977783204	-185.8447570800782	70.49887847900393	252.4339447021486	-106.0331649780274	74.88684082031253	239.0851593017579	-148.8809356689454	35.93132781982423	303.9922180175782	-176.9487762451172	29.62355995178224	111.4498748779297	-223.8391723632814	18.34675025939942	162.5398712158204	-193.7749176025392	788.9243164062505	177.475570678711	202.351287841797	796.218383789063	182.6156158447266	
